#!OML:ASF H:\Terrain\Walking\May29\JustinRory\rory.ASF
:FULLY-SPECIFIED
:DEGREES
1097
root 17.8538 10.0715 1.36779 -388.841 -76.6129 360.397
lowerback 35.817 0.959934 -7.28269
upperback 16.2317 -3.06598 0.789192
thorax 0.245852 -2.91544 5.55879
lowerneck 2.22239 -16.7849 -12.9734
upperneck 14.0963 -25.7454 17.1015
head 7.9361 -12.4854 5.18692
rclavicle 1.98785e-014 -3.61788e-014
rhumerus -30.6775 28.3724 -95.1726
rradius 111.141
rwrist 9.72528
rhand -5.20741 12.8275
rfingers 7.12502
rthumb 20.5941 -16.1
lclavicle 1.98785e-014 -3.61788e-014
lhumerus -13.1302 -34.2941 54.5306
lradius 90.4441
lwrist 0.968057
lhand -33.1299 6.92658
lfingers 7.12502
lthumb -6.33964 -323.188
rfemur -65.622 -8.4477 13.3361
rtibia 111.389
rfoot -10.6836 3.51398
rtoes 28.8593
lfemur -63.4246 19.8009 -1.53807
ltibia 103.855
lfoot -1.116 -16.523
ltoes 2.55872
1098
root 17.8366 10.0653 1.376 -388.181 -76.7285 359.99
lowerback 35.4536 0.88951 -7.09944
upperback 16.4498 -3.0892 0.472504
thorax 0.586109 -2.9236 5.11775
lowerneck 2.08619 -16.8256 -12.8729
upperneck 14.4468 -25.8854 17.1748
head 8.09685 -12.527 5.15439
rclavicle 1.41137e-014 -1.55052e-014
rhumerus -30.4244 27.9488 -95.2034
rradius 111.652
rwrist 9.71975
rhand -4.88244 13.2328
rfingers 7.12502
rthumb 20.9064 -15.6607
lclavicle 1.41137e-014 -1.55052e-014
lhumerus -12.8422 -34.3001 53.9404
lradius 90.8154
lwrist 1.37467
lhand -33.7933 6.91015
lfingers 7.12502
lthumb -6.98005 -323.225
rfemur -65.8164 -8.48353 13.6218
rtibia 111.435
rfoot -11.0072 3.27056
rtoes 27.9572
lfemur -63.7734 19.9989 -1.4317
ltibia 104.028
lfoot -0.203138 -16.4323
ltoes 5.71982
1099
root 17.82 10.0621 1.38857 -385.616 -76.9659 357.568
lowerback 35.3689 0.737209 -6.56724
upperback 16.5244 -3.11338 0.431675
thorax 0.665775 -2.9072 4.8008
lowerneck 2.43783 -16.8518 -13.294
upperneck 14.4185 -26.045 17.6159
head 8.17748 -12.627 5.34651
rclavicle 1.2921e-014 3.18055e-014
rhumerus -30.3565 27.5834 -94.9296
rradius 112.308
rwrist 9.68207
rhand -4.77028 13.5985
rfingers 7.12502
rthumb 21.0141 -15.283
lclavicle 1.2921e-014 3.18055e-014
lhumerus -12.9837 -34.136 53.8586
lradius 91.2693
lwrist 1.53853
lhand -33.8094 6.96188
lfingers 7.12502
lthumb -6.9956 -323.174
rfemur -65.7037 -8.3207 14.2958
rtibia 111.318
rfoot -11.3617 3.13036
rtoes 28.0618
lfemur -64.1185 20.2113 -0.809051
ltibia 104.249
lfoot -1.56873 -17.0801
ltoes -1.61243
1100
root 17.8102 10.0622 1.39351 -384.326 -77.222 356.31
lowerback 35.4914 0.884555 -6.48689
upperback 16.5958 -2.9291 0.450149
thorax 0.677875 -2.8214 4.72441
lowerneck 2.88399 -17.0534 -13.2312
upperneck 14.1133 -26.3296 17.7581
head 8.06129 -12.7923 5.38248
rclavicle -1.92821e-014 -6.75868e-015
rhumerus -30.2619 27.0756 -94.5925
rradius 113.036
rwrist 9.68959
rhand -4.83265 13.4129
rfingers 7.12502
rthumb 20.9542 -15.4753
lclavicle -1.92821e-014 -6.75868e-015
lhumerus -13.0885 -34.0098 53.6688
lradius 91.8946
lwrist 1.77798
lhand -33.1533 6.7573
lfingers 7.12502
lthumb -6.36224 -323.358
rfemur -65.6316 -8.03516 14.6134
rtibia 111.273
rfoot -11.6201 3.26717
rtoes 28.4541
lfemur -64.1439 20.458 -0.363587
ltibia 104.405
lfoot -1.61159 -17.3161
ltoes -3.72926
1101
root 17.8037 10.0666 1.39727 -384.167 -77.1698 356.308
lowerback 35.5454 1.05464 -7.01077
upperback 16.5828 -2.88276 0.59006
thorax 0.674896 -2.84218 5.13145
lowerneck 3.26839 -17.1607 -13.4732
upperneck 14.0169 -26.464 17.6676
head 8.00626 -12.8946 5.39927
rclavicle -1.61016e-014 1.31198e-014
rhumerus -31.1917 27.2032 -94.0614
rradius 112.066
rwrist 8.50197
rhand -5.52186 14.6914
rfingers 7.12502
rthumb 20.2919 -14.2686
lclavicle -1.61016e-014 1.31198e-014
lhumerus -13.5636 -33.6241 53.9836
lradius 92.4067
lwrist 1.99683
lhand -32.6696 6.1913
lfingers 7.12502
lthumb -5.89527 -323.911
rfemur -65.862 -8.19997 14.5758
rtibia 111.344
rfoot -12.125 3.34372
rtoes 25.3288
lfemur -64.3203 20.4242 -0.429997
ltibia 104.491
lfoot -1.52929 -17.3642
ltoes -3.80327
